<svg xmlns="http://www.w3.org/2000/svg" viewBox="0 0 24 24">
  <path d="M10.9 2.4c0.2-0.5 0-1.1-0.6-1.3 -0.5-0.2-1.1 0-1.3 0.6L6.1 9h2.2L10.9 2.4z"/>
  <path d="M14.9 1.6c-0.2-0.5-0.8-0.8-1.3-0.6 -0.5 0.2-0.8 0.8-0.6 1.3L15.7 9h2.2L14.9 1.6z"/>
  <path d="M18.3 10h-2.2H7.9 5.7 2 1.5C0.7 10 0 10.7 0 11.5S0.7 13 1.5 13h0.4l2.8 9c0.2 0.5 0.7 1 1.3 1h12c0.5 0 1.1-0.4 1.3-1l2.8-9h0.4c0.8 0 1.5-0.7 1.5-1.5S23.3 10 22.5 10H22 18.3zM9 20c0 0.6-0.4 1-1 1s-1-0.4-1-1v-5c0-0.6 0.4-1 1-1s1 0.4 1 1V20zM13 20c0 0.6-0.4 1-1 1 -0.6 0-1-0.4-1-1v-5c0-0.6 0.4-1 1-1 0.6 0 1 0.4 1 1V20zM17 20c0 0.6-0.4 1-1 1s-1-0.4-1-1v-5c0-0.6 0.4-1 1-1 0.6 0 1 0.4 1 1V20z"/>
</svg>