<svg xmlns="http://www.w3.org/2000/svg" viewBox="0 0 89.2 84.9">
  <path d="M67.5 64.2c-5.7 0-10.4 4.6-10.4 10.4 0 5.7 4.6 10.4 10.4 10.4s10.4-4.6 10.4-10.4c0 0 0 0 0 0C77.9 68.8 73.3 64.2 67.5 64.2z"/>
  <path d="M85.2 14.4H22l-1-6.7C20.4 3.3 16.6 0 12.1 0H4C1.8 0 0 1.8 0 4s1.8 4 4 4h8.1c0.5 0 0.9 0.4 1 0.9l6.2 42.2c0.8 5.4 5.5 9.3 10.9 9.3h41.6c5.2 0 9.7-3.7 10.8-8.8l6.5-32.5c0.4-2.2-1-4.3-3.2-4.7C85.7 14.5 85.4 14.4 85.2 14.4z"/>
  <path d="M31.7 64.2C26 64.4 21.6 69.2 21.8 75c0.2 5.5 4.7 9.9 10.2 9.9h0.3c5.7-0.3 10.2-5.1 9.9-10.8C41.9 68.5 37.3 64.2 31.7 64.2z"/>
</svg>