<svg xmlns="http://www.w3.org/2000/svg" viewBox="0 0 54 54">
  <path d="M32 21.9V1c0-0.6-0.4-1-1-1l-8.1 0c-0.2-0.1-0.5 0.1-0.6 0.2S22 0.7 22 0.9l-0.1 21H1c-0.6 0-1 0.4-1 1l-0.1 8c0 0.3 0.1 0.6 0.4 0.8C0.5 31.9 0.7 32 1 32H22L22 53c0 0.3 0.1 0.5 0.3 0.7S22.7 54 23 54h8.1c0.3 0 0.6-0.1 0.7-0.3 0.1-0.1 0.3-0.4 0.3-0.7V32.1H53c0.6 0 1-0.4 1-1V23c0-0.6-0.4-1-1-1L32 21.9z"/>
</svg>

<svg xmlns="http://www.w3.org/2000/svg" viewBox="0 0 50 50">
  <path class="st0" d="M46.2 20H30V3.8C30 1.7 28.3 0 26.2 0h-2.5C21.7 0 20 1.7 20 3.8V20H3.8C1.7 20 0 21.7 0 23.8v2.5C0 28.3 1.7 30 3.8 30H20v16.2c0 2.1 1.7 3.8 3.8 3.8h2.5c2.1 0 3.8-1.7 3.8-3.8V30h16.2c2.1 0 3.8-1.7 3.8-3.8v-2.5C50 21.7 48.3 20 46.2 20z"/>
</svg>