<svg xmlns="http://www.w3.org/2000/svg" viewBox="0 0 90 100">
  <path d="M85.8 35c2.3 0 4.2-1.9 4.2-4.2V16.4c0-2.3-1.9-4.2-4.2-4.2H79c0-6.1-4.9-11-11-11H17.2c-6.1 0-11 4.9-11 11v4.5H2.5c-1.4 0-2.5 1.1-2.5 2.5s1.1 2.5 2.5 2.5h3.7V29H2.5C1.1 29 0 30.1 0 31.5s1.1 2.5 2.5 2.5h3.7v7.2H2.5c-1.4 0-2.5 1.1-2.5 2.5 0 1.4 1.1 2.5 2.5 2.5h3.7v7.2H2.5c-1.4 0-2.5 1.1-2.5 2.5s1.1 2.5 2.5 2.5h3.7v7.2H2.5c-1.4 0-2.5 1.1-2.5 2.5S1.1 71 2.5 71h3.7v7.2H2.5c-1.4 0-2.5 1.1-2.5 2.5s1.1 2.5 2.5 2.5h3.7v4.5c0 6.1 4.9 11 11 11H68c6.1 0 11-4.9 11-11h6.7c2.3 0 4.2-1.9 4.2-4.2V69.2c0-2.3-1.9-4.2-4.2-4.2H79v-3.6h6.7c2.3 0 4.2-1.9 4.2-4.2V42.8c0-2.3-1.9-4.2-4.2-4.2H79V35L85.8 35 85.8 35zM79.1 43.7h5.8v12.7h-5.8V43.7zM79.1 17.2h5.8v12.7h-5.8V17.2zM74 87.8c0 3.3-2.7 5.9-5.9 5.9H17.2c-3.3 0-5.9-2.7-5.9-5.9v-4.5h5.4c1.4 0 2.5-1.1 2.5-2.5s-1.1-2.5-2.5-2.5h-5.4V71h5.4c1.4 0 2.5-1.1 2.5-2.5s-1.1-2.5-2.5-2.5h-5.4v-7.2h5.4c1.4 0 2.5-1.1 2.5-2.5 0-1.4-1.1-2.5-2.5-2.5h-5.4v-7.2h5.4c1.4 0 2.5-1.1 2.5-2.5 0-1.4-1.1-2.5-2.5-2.5h-5.4v-7.2h5.4c1.4 0 2.5-1.1 2.5-2.5S18.1 29 16.7 29h-5.4v-7.2h5.4c1.4 0 2.5-1.1 2.5-2.5 0-1.4-1.1-2.5-2.5-2.5h-5.4v-4.5c0-3.3 2.7-5.9 5.9-5.9H68c3.3 0 5.9 2.7 5.9 5.9V87.8zM79.1 70.1h5.8v12.7h-5.8V70.1z"/>
  <path d="M54.5 39c-0.7 0-1.4 0.1-2 0.3 -0.3-3.8-3.6-6.9-7.5-6.9 -3.9 0-7.2 3-7.5 6.9 -0.6-0.2-1.3-0.3-2-0.3 -4.2 0-7.5 3.4-7.5 7.5 0 4.1 3.3 7.5 7.4 7.5v7.6c0 0.5 0.1 0.9 0.4 1.3 -0.8 0.4-1.4 1.2-1.4 2.2 0 1.4 1.1 2.5 2.5 2.5h16.5c1.4 0 2.5-1.1 2.5-2.5 0-1-0.6-1.9-1.5-2.3 0.2-0.4 0.3-0.8 0.3-1.2V54c0 0 0 0 0 0 4.2 0 7.5-3.4 7.5-7.5S58.7 39 54.5 39zM41.6 63.1c0 0.5-0.4 0.8-0.8 0.8 -0.5 0-0.8-0.4-0.8-0.8v-6.9c0-0.5 0.4-0.8 0.8-0.8 0.5 0 0.8 0.4 0.8 0.8V63.1zM45.8 63.1c0 0.5-0.4 0.8-0.8 0.8s-0.8-0.4-0.8-0.8v-6.9c0-0.5 0.4-0.8 0.8-0.8s0.8 0.4 0.8 0.8V63.1zM50.1 63.1c0 0.5-0.4 0.8-0.8 0.8 -0.5 0-0.8-0.4-0.8-0.8v-6.9c0-0.5 0.4-0.8 0.8-0.8 0.5 0 0.8 0.4 0.8 0.8V63.1z"/>
</svg>