<svg xmlns="http://www.w3.org/2000/svg" viewBox="0 0 55 70" class="trash-icon">
    <path d="M45.2 63.4c0 0.9-0.8 1.6-1.7 1.6h-32c-0.9 0-1.6-0.7-1.7-1.6L8 19.4C7.9 18 6.8 16.9 5.4 17S2.9 18.2 3 19.6l1.8 44C5 67.2 8 70 11.5 70h32c3.5 0 6.5-2.8 6.7-6.4l1.8-44c0.1-1.4-1-2.5-2.4-2.6 -1.4-0.1-2.5 1-2.6 2.4L45.2 63.4z"/>
    <path d="M25.5 57.5c0 1.1 0.9 2 2 2s2-0.9 2-2v-34c0-1.1-0.9-2-2-2s-2 0.9-2 2V57.5z"/>
    <path d="M15.5 57.6c0 1.1 1 2 2.1 1.9 1.1 0 2-1 1.9-2.1l-1-34c0-1.1-1-2-2.1-1.9 -1.1 0-2 1-1.9 2.1L15.5 57.6z"/>
    <path d="M35.5 57.4c0 1.1 0.8 2 1.9 2.1 1.1 0 2-0.8 2.1-1.9l1-34c0-1.1-0.8-2-1.9-2.1 -1.1 0-2 0.8-2.1 1.9L35.5 57.4z"/>
    <path d="M52.5 8.5H39.8l-1-3.3C38 2.2 35.1 0 32 0h-9c-3 0-6 2.2-6.9 5.2l-1 3.3H2.5C1.1 8.5 0 9.6 0 11s1.1 2.5 2.5 2.5h50c1.4 0 2.5-1.1 2.5-2.5S53.9 8.5 52.5 8.5zM20.4 8.5l0.6-2C21.2 5.8 22.2 5 23 5h9c0.8 0 1.8 0.8 2 1.5l0.6 2H20.4z"/>
</svg>