<svg xmlns="http://www.w3.org/2000/svg" viewBox="0 0 600 182">
  <path d="M197.9 1.8h73.4v37.6h-9.2l-34.2 140.8h-68.6l-20.9-99h-2.3l-22 99H45.6L9.2 39.4H0V1.8h84.8v37.6h-8.7l8.9 58.5h2.3l21.8-96.1h66l20.2 96.1h2.3l8.9-58.5h-8.7V1.8z"/>
  <path d="M278.6 180.2v-37.6H290V39.4h-11.5V1.8h137.1v59.4h-40.6V39.4h-20.9v38.1h34.6v26.1h-34.6v39h30v37.6H278.6z"/>
  <path d="M423.5 142.6h11.5V39.6h-11.5V1.8h93.1c25.5 0 45.8 7 60.9 21C592.5 36.8 600 59.5 600 91c0 31.5-7.5 54.2-22.6 68.2 -15.1 14-35.3 21-60.9 21h-93.1V142.6zM512.4 142.6c5.2 0 9.1-1.4 11.7-4.1 2.6-2.8 3.9-7 3.9-12.8V56.4c0-11.3-5.2-17-15.6-17h-13.3v103.2H512.4z"/>
</svg>